# xmcd
# 
# Track frame offsets:
#     182
#     12825
#     24645
#     36002
#     45917
#     56155
#     66395
#     81620
#     92765
#     104082
#     116557
#     127185
#     136617
#     146622
#     156435
#     167400
#     176532
#     188652
#     197695
#     209320
# 
# Disc length: 2911
# 
# Revision: 4
# Processed by: cddbd v1.5.2PL0 Copyright (c) Steve Scherf et al.
# Submitted via: fre:ac v1.1beta1pre5
# 
DISCID=1d0b5d14
DTITLE=20 Country Classics Part 1
DYEAR=1988
DGENRE=Country
TTITLE0=Jim Reeves - Bimbo
TTITLE1=Tennessee Ernie Ford - Sixteen Tons
TTITLE2=Sonny James - Young Love
TTITLE3=Hank Locklin - Please Help Me I'm Falling
TTITLE4=Frankie Laine - I Believe
TTITLE5=Joan Weber - Let Me Go Lover
TTITLE6=Elvis Presley - That's When Your Heartaches Begin
TTITLE7=Jim Reeves - Gypsy Heart
TTITLE8=Don Gibson - Sea Of Heartbreak
TTITLE9=Frankie Laine - High Noon
TTITLE10=Slim Whitman - Rose Marie
TTITLE11=Bobby Helms - A Fool Such As I
TTITLE12=Conway Twitty - It's Only Make Believe
TTITLE13=Faron Young - Sweet Dreams
TTITLE14=Carl Perkins - Dixiefried
TTITLE15=Bob Luman - Let's Think About Living
TTITLE16=Johnny Cash - I Walk The Line
TTITLE17=Jim Reeves - I Won't Forget You
TTITLE18=Elvis Presley - I Will Be Home Again
TTITLE19=Frankie Laine - Rawhide
EXTD=YEAR: 1988
EXTT0=
EXTT1=
EXTT2=
EXTT3=
EXTT4=
EXTT5=
EXTT6=
EXTT7=
EXTT8=
EXTT9=
EXTT10=
EXTT11=
EXTT12=
EXTT13=
EXTT14=
EXTT15=
EXTT16=
EXTT17=
EXTT18=
EXTT19=
PLAYORDER=
